  0
SECTION
  2
HEADER
  9
$ACADVER
  1
AC1014
  9
$HANDSEED
  5
FFFF
  9
$MEASUREMENT
 70
     1
  0
ENDSEC
  0
SECTION
  2
TABLES
  0
TABLE
  2
VPORT
  5
8
330
0
100
AcDbSymbolTable
 70
     4
  0
VPORT
  5
2E
330
8
100
AcDbSymbolTableRecord
100
AcDbViewportTableRecord
  2
*ACTIVE
 70
     0
 10
0.0
 20
0.0
 11
1.0
 21
1.0
 12
210.0
 22
148.5
 13
0.0
 23
0.0
 14
10.0
 24
10.0
 15
10.0
 25
10.0
 16
0.0
 26
0.0
 36
1.0
 17
0.0
 27
0.0
 37
0.0
 40
341.0
 41
1.24
 42
50.0
 43
0.0
 44
0.0
 50
0.0
 51
0.0
 71
     0
 72
   100
 73
     1
 74
     3
 75
     0
 76
     0
 77
     0
 78
     0
  0
ENDTAB
  0
TABLE
  2
LTYPE
  5
5
330
0
100
AcDbSymbolTable
 70
     1
  0
LTYPE
  5
14
330
5
100
AcDbSymbolTableRecord
100
AcDbLinetypeTableRecord
  2
BYBLOCK
 70
     0
  3

 72
    65
 73
     0
 40
0.0
  0
LTYPE
  5
15
330
5
100
AcDbSymbolTableRecord
100
AcDbLinetypeTableRecord
  2
BYLAYER
 70
     0
  3

 72
    65
 73
     0
 40
0.0
  0
LTYPE
  5
16
330
5
100
AcDbSymbolTableRecord
100
AcDbLinetypeTableRecord
  2
CONTINUOUS
 70
     0
  3
Solid line
 72
    65
 73
     0
 40
0.0
  0
ENDTAB
  0
TABLE
  2
LAYER
  5
2
100
AcDbSymbolTable
 70
2
  0
LAYER
  5
50
100
AcDbSymbolTableRecord
100
AcDbLayerTableRecord
  2
0
 70
0
  6
CONTINUOUS
  0
LAYER
  5
51
100
AcDbSymbolTableRecord
100
AcDbLayerTableRecord
  2
Calque_1
 70
0
  6
CONTINUOUS
  0
ENDTAB
  0
TABLE
  2
STYLE
  5
3
330
0
100
AcDbSymbolTable
 70
     1
  0
STYLE
  5
11
330
3
100
AcDbSymbolTableRecord
100
AcDbTextStyleTableRecord
  2
STANDARD
 70
     0
 40
0.0
 41
1.0
 50
0.0
 71
     0
 42
2.5
  3
txt
  4

  0
ENDTAB
  0
TABLE
  2
VIEW
  5
6
330
0
100
AcDbSymbolTable
 70
     0
  0
ENDTAB
  0
TABLE
  2
UCS
  5
7
330
0
100
AcDbSymbolTable
 70
     0
  0
ENDTAB
  0
TABLE
  2
APPID
  5
9
330
0
100
AcDbSymbolTable
 70
     2
  0
APPID
  5
12
330
9
100
AcDbSymbolTableRecord
100
AcDbRegAppTableRecord
  2
ACAD
 70
     0
  0
ENDTAB
  0
TABLE
  2
DIMSTYLE
  5
A
330
0
100
AcDbSymbolTable
 70
     1
  0
DIMSTYLE
105
27
330
A
100
AcDbSymbolTableRecord
100
AcDbDimStyleTableRecord
  2
ISO-25
 70
     0
  3

  4

  5

  6

  7

 40
1.0
 41
2.5
 42
0.625
 43
3.75
 44
1.25
 45
0.0
 46
0.0
 47
0.0
 48
0.0
140
2.5
141
2.5
142
0.0
143
0.03937007874016
144
1.0
145
0.0
146
1.0
147
0.625
 71
     0
 72
     0
 73
     0
 74
     0
 75
     0
 76
     0
 77
     1
 78
     8
170
     0
171
     3
172
     1
173
     0
174
     0
175
     0
176
     0
177
     0
178
     0
270
     2
271
     2
272
     2
273
     2
274
     3
340
11
275
     0
280
     0
281
     0
282
     0
283
     0
284
     8
285
     0
286
     0
287
     3
288
     0
  0
ENDTAB
  0
TABLE
  2
BLOCK_RECORD
  5
1
330
0
100
AcDbSymbolTable
 70
     1
  0
BLOCK_RECORD
  5
1F
330
1
100
AcDbSymbolTableRecord
100
AcDbBlockTableRecord
  2
*MODEL_SPACE
  0
BLOCK_RECORD
  5
1B
330
1
100
AcDbSymbolTableRecord
100
AcDbBlockTableRecord
  2
*PAPER_SPACE
  0
ENDTAB
  0
ENDSEC
  0
SECTION
  2
BLOCKS
  0
BLOCK
  5
20
330
1F
100
AcDbEntity
  8
0
100
AcDbBlockBegin
  2
*MODEL_SPACE
 70
     0
 10
0.0
 20
0.0
 30
0.0
  3
*MODEL_SPACE
  1

  0
ENDBLK
  5
21
330
1F
100
AcDbEntity
  8
0
100
AcDbBlockEnd
  0
BLOCK
  5
1C
330
1B
100
AcDbEntity
 67
     1
  8
0
100
AcDbBlockBegin
  2
*PAPER_SPACE
  1

  0
ENDBLK
  5
1D
330
1B
100
AcDbEntity
 67
     1
  8
0
100
AcDbBlockEnd
  0
ENDSEC
  0
SECTION
  2
ENTITIES
  0
SPLINE
  5
100
100
AcDbEntity
  8
Calque_1
 62
1
100
AcDbSpline
 70
8
 71
3
 72
8
 73
4
 74
0
 40
0
 40
0
 40
0
 40
0
 40
1
 40
1
 40
1
 40
1
 10
250.705743
 20
813.443649
 30
0.0
 10
250.705743
 20
783.878122
 30
0.0
 10
250.705743
 20
783.878122
 30
0.0
 10
250.705743
 20
783.878122
 30
0.0
  0
SPLINE
  5
101
100
AcDbEntity
  8
Calque_1
 62
1
100
AcDbSpline
 70
8
 71
3
 72
8
 73
4
 74
0
 40
0
 40
0
 40
0
 40
0
 40
1
 40
1
 40
1
 40
1
 10
250.705743
 20
775.116450
 30
0.0
 10
250.705743
 20
745.550923
 30
0.0
 10
250.705743
 20
745.550923
 30
0.0
 10
250.705743
 20
745.550923
 30
0.0
  0
SPLINE
  5
102
100
AcDbEntity
  8
Calque_1
 62
1
100
AcDbSpline
 70
8
 71
3
 72
8
 73
4
 74
0
 40
0
 40
0
 40
0
 40
0
 40
1
 40
1
 40
1
 40
1
 10
250.705743
 20
736.789271
 30
0.0
 10
250.705743
 20
707.223744
 30
0.0
 10
250.705743
 20
707.223744
 30
0.0
 10
250.705743
 20
707.223744
 30
0.0
  0
SPLINE
  5
103
100
AcDbEntity
  8
Calque_1
 62
1
100
AcDbSpline
 70
8
 71
3
 72
8
 73
4
 74
0
 40
0
 40
0
 40
0
 40
0
 40
1
 40
1
 40
1
 40
1
 10
250.705743
 20
698.462084
 30
0.0
 10
250.705743
 20
668.896559
 30
0.0
 10
250.705743
 20
668.896559
 30
0.0
 10
250.705743
 20
668.896559
 30
0.0
  0
SPLINE
  5
104
100
AcDbEntity
  8
Calque_1
 62
1
100
AcDbSpline
 70
8
 71
3
 72
8
 73
4
 74
0
 40
0
 40
0
 40
0
 40
0
 40
1
 40
1
 40
1
 40
1
 10
250.705743
 20
660.134885
 30
0.0
 10
250.705743
 20
630.569415
 30
0.0
 10
250.705743
 20
630.569415
 30
0.0
 10
250.705743
 20
630.569415
 30
0.0
  0
SPLINE
  5
105
100
AcDbEntity
  8
Calque_1
 62
1
100
AcDbSpline
 70
8
 71
3
 72
8
 73
4
 74
0
 40
0
 40
0
 40
0
 40
0
 40
1
 40
1
 40
1
 40
1
 10
258.354624
 20
813.443649
 30
0.0
 10
258.354624
 20
783.878122
 30
0.0
 10
258.354624
 20
783.878122
 30
0.0
 10
258.354624
 20
783.878122
 30
0.0
  0
SPLINE
  5
106
100
AcDbEntity
  8
Calque_1
 62
1
100
AcDbSpline
 70
8
 71
3
 72
8
 73
4
 74
0
 40
0
 40
0
 40
0
 40
0
 40
1
 40
1
 40
1
 40
1
 10
258.354624
 20
775.116450
 30
0.0
 10
258.354624
 20
745.550923
 30
0.0
 10
258.354624
 20
745.550923
 30
0.0
 10
258.354624
 20
745.550923
 30
0.0
  0
SPLINE
  5
107
100
AcDbEntity
  8
Calque_1
 62
1
100
AcDbSpline
 70
8
 71
3
 72
8
 73
4
 74
0
 40
0
 40
0
 40
0
 40
0
 40
1
 40
1
 40
1
 40
1
 10
258.354624
 20
736.789271
 30
0.0
 10
258.354624
 20
707.223744
 30
0.0
 10
258.354624
 20
707.223744
 30
0.0
 10
258.354624
 20
707.223744
 30
0.0
  0
SPLINE
  5
108
100
AcDbEntity
  8
Calque_1
 62
1
100
AcDbSpline
 70
8
 71
3
 72
8
 73
4
 74
0
 40
0
 40
0
 40
0
 40
0
 40
1
 40
1
 40
1
 40
1
 10
258.354624
 20
698.462084
 30
0.0
 10
258.354624
 20
668.896559
 30
0.0
 10
258.354624
 20
668.896559
 30
0.0
 10
258.354624
 20
668.896559
 30
0.0
  0
SPLINE
  5
109
100
AcDbEntity
  8
Calque_1
 62
1
100
AcDbSpline
 70
8
 71
3
 72
8
 73
4
 74
0
 40
0
 40
0
 40
0
 40
0
 40
1
 40
1
 40
1
 40
1
 10
258.354624
 20
660.134885
 30
0.0
 10
258.354624
 20
630.569415
 30
0.0
 10
258.354624
 20
630.569415
 30
0.0
 10
258.354624
 20
630.569415
 30
0.0
  0
SPLINE
  5
10a
100
AcDbEntity
  8
Calque_1
 62
1
100
AcDbSpline
 70
8
 71
3
 72
8
 73
4
 74
0
 40
0
 40
0
 40
0
 40
0
 40
1
 40
1
 40
1
 40
1
 10
266.003528
 20
813.443649
 30
0.0
 10
266.003528
 20
783.878122
 30
0.0
 10
266.003528
 20
783.878122
 30
0.0
 10
266.003528
 20
783.878122
 30
0.0
  0
SPLINE
  5
10b
100
AcDbEntity
  8
Calque_1
 62
1
100
AcDbSpline
 70
8
 71
3
 72
8
 73
4
 74
0
 40
0
 40
0
 40
0
 40
0
 40
1
 40
1
 40
1
 40
1
 10
266.003528
 20
775.116450
 30
0.0
 10
266.003528
 20
745.550923
 30
0.0
 10
266.003528
 20
745.550923
 30
0.0
 10
266.003528
 20
745.550923
 30
0.0
  0
SPLINE
  5
10c
100
AcDbEntity
  8
Calque_1
 62
1
100
AcDbSpline
 70
8
 71
3
 72
8
 73
4
 74
0
 40
0
 40
0
 40
0
 40
0
 40
1
 40
1
 40
1
 40
1
 10
266.003528
 20
736.789271
 30
0.0
 10
266.003528
 20
707.223744
 30
0.0
 10
266.003528
 20
707.223744
 30
0.0
 10
266.003528
 20
707.223744
 30
0.0
  0
SPLINE
  5
10d
100
AcDbEntity
  8
Calque_1
 62
1
100
AcDbSpline
 70
8
 71
3
 72
8
 73
4
 74
0
 40
0
 40
0
 40
0
 40
0
 40
1
 40
1
 40
1
 40
1
 10
266.003528
 20
698.462084
 30
0.0
 10
266.003528
 20
668.896559
 30
0.0
 10
266.003528
 20
668.896559
 30
0.0
 10
266.003528
 20
668.896559
 30
0.0
  0
SPLINE
  5
10e
100
AcDbEntity
  8
Calque_1
 62
1
100
AcDbSpline
 70
8
 71
3
 72
8
 73
4
 74
0
 40
0
 40
0
 40
0
 40
0
 40
1
 40
1
 40
1
 40
1
 10
266.003528
 20
660.134885
 30
0.0
 10
266.003528
 20
630.569415
 30
0.0
 10
266.003528
 20
630.569415
 30
0.0
 10
266.003528
 20
630.569415
 30
0.0
  0
SPLINE
  5
10f
100
AcDbEntity
  8
Calque_1
 62
1
100
AcDbSpline
 70
8
 71
3
 72
8
 73
4
 74
0
 40
0
 40
0
 40
0
 40
0
 40
1
 40
1
 40
1
 40
1
 10
273.652407
 20
813.443649
 30
0.0
 10
273.652407
 20
783.878122
 30
0.0
 10
273.652407
 20
783.878122
 30
0.0
 10
273.652407
 20
783.878122
 30
0.0
  0
SPLINE
  5
110
100
AcDbEntity
  8
Calque_1
 62
1
100
AcDbSpline
 70
8
 71
3
 72
8
 73
4
 74
0
 40
0
 40
0
 40
0
 40
0
 40
1
 40
1
 40
1
 40
1
 10
273.652407
 20
775.116450
 30
0.0
 10
273.652407
 20
745.550923
 30
0.0
 10
273.652407
 20
745.550923
 30
0.0
 10
273.652407
 20
745.550923
 30
0.0
  0
SPLINE
  5
111
100
AcDbEntity
  8
Calque_1
 62
1
100
AcDbSpline
 70
8
 71
3
 72
8
 73
4
 74
0
 40
0
 40
0
 40
0
 40
0
 40
1
 40
1
 40
1
 40
1
 10
273.652407
 20
736.789271
 30
0.0
 10
273.652407
 20
707.223744
 30
0.0
 10
273.652407
 20
707.223744
 30
0.0
 10
273.652407
 20
707.223744
 30
0.0
  0
SPLINE
  5
112
100
AcDbEntity
  8
Calque_1
 62
1
100
AcDbSpline
 70
8
 71
3
 72
8
 73
4
 74
0
 40
0
 40
0
 40
0
 40
0
 40
1
 40
1
 40
1
 40
1
 10
273.652407
 20
698.462084
 30
0.0
 10
273.652407
 20
668.896559
 30
0.0
 10
273.652407
 20
668.896559
 30
0.0
 10
273.652407
 20
668.896559
 30
0.0
  0
SPLINE
  5
113
100
AcDbEntity
  8
Calque_1
 62
1
100
AcDbSpline
 70
8
 71
3
 72
8
 73
4
 74
0
 40
0
 40
0
 40
0
 40
0
 40
1
 40
1
 40
1
 40
1
 10
273.652407
 20
660.134885
 30
0.0
 10
273.652407
 20
630.569415
 30
0.0
 10
273.652407
 20
630.569415
 30
0.0
 10
273.652407
 20
630.569415
 30
0.0
  0
SPLINE
  5
114
100
AcDbEntity
  8
Calque_1
 62
1
100
AcDbSpline
 70
8
 71
3
 72
8
 73
4
 74
0
 40
0
 40
0
 40
0
 40
0
 40
1
 40
1
 40
1
 40
1
 10
281.301299
 20
813.443649
 30
0.0
 10
281.301299
 20
783.878122
 30
0.0
 10
281.301299
 20
783.878122
 30
0.0
 10
281.301299
 20
783.878122
 30
0.0
  0
SPLINE
  5
115
100
AcDbEntity
  8
Calque_1
 62
1
100
AcDbSpline
 70
8
 71
3
 72
8
 73
4
 74
0
 40
0
 40
0
 40
0
 40
0
 40
1
 40
1
 40
1
 40
1
 10
281.301299
 20
775.116450
 30
0.0
 10
281.301299
 20
745.550923
 30
0.0
 10
281.301299
 20
745.550923
 30
0.0
 10
281.301299
 20
745.550923
 30
0.0
  0
SPLINE
  5
116
100
AcDbEntity
  8
Calque_1
 62
1
100
AcDbSpline
 70
8
 71
3
 72
8
 73
4
 74
0
 40
0
 40
0
 40
0
 40
0
 40
1
 40
1
 40
1
 40
1
 10
281.301299
 20
736.789271
 30
0.0
 10
281.301299
 20
707.223744
 30
0.0
 10
281.301299
 20
707.223744
 30
0.0
 10
281.301299
 20
707.223744
 30
0.0
  0
SPLINE
  5
117
100
AcDbEntity
  8
Calque_1
 62
1
100
AcDbSpline
 70
8
 71
3
 72
8
 73
4
 74
0
 40
0
 40
0
 40
0
 40
0
 40
1
 40
1
 40
1
 40
1
 10
281.301299
 20
698.462084
 30
0.0
 10
281.301299
 20
668.896559
 30
0.0
 10
281.301299
 20
668.896559
 30
0.0
 10
281.301299
 20
668.896559
 30
0.0
  0
SPLINE
  5
118
100
AcDbEntity
  8
Calque_1
 62
1
100
AcDbSpline
 70
8
 71
3
 72
8
 73
4
 74
0
 40
0
 40
0
 40
0
 40
0
 40
1
 40
1
 40
1
 40
1
 10
281.301299
 20
660.134885
 30
0.0
 10
281.301299
 20
630.569415
 30
0.0
 10
281.301299
 20
630.569415
 30
0.0
 10
281.301299
 20
630.569415
 30
0.0
  0
SPLINE
  5
119
100
AcDbEntity
  8
Calque_1
 62
1
100
AcDbSpline
 70
8
 71
3
 72
8
 73
4
 74
0
 40
0
 40
0
 40
0
 40
0
 40
1
 40
1
 40
1
 40
1
 10
288.950179
 20
813.443649
 30
0.0
 10
288.950179
 20
783.878122
 30
0.0
 10
288.950179
 20
783.878122
 30
0.0
 10
288.950179
 20
783.878122
 30
0.0
  0
SPLINE
  5
11a
100
AcDbEntity
  8
Calque_1
 62
1
100
AcDbSpline
 70
8
 71
3
 72
8
 73
4
 74
0
 40
0
 40
0
 40
0
 40
0
 40
1
 40
1
 40
1
 40
1
 10
288.950179
 20
775.116450
 30
0.0
 10
288.950179
 20
745.550923
 30
0.0
 10
288.950179
 20
745.550923
 30
0.0
 10
288.950179
 20
745.550923
 30
0.0
  0
SPLINE
  5
11b
100
AcDbEntity
  8
Calque_1
 62
1
100
AcDbSpline
 70
8
 71
3
 72
8
 73
4
 74
0
 40
0
 40
0
 40
0
 40
0
 40
1
 40
1
 40
1
 40
1
 10
288.950179
 20
736.789271
 30
0.0
 10
288.950179
 20
707.223744
 30
0.0
 10
288.950179
 20
707.223744
 30
0.0
 10
288.950179
 20
707.223744
 30
0.0
  0
SPLINE
  5
11c
100
AcDbEntity
  8
Calque_1
 62
1
100
AcDbSpline
 70
8
 71
3
 72
8
 73
4
 74
0
 40
0
 40
0
 40
0
 40
0
 40
1
 40
1
 40
1
 40
1
 10
288.950179
 20
698.462084
 30
0.0
 10
288.950179
 20
668.896559
 30
0.0
 10
288.950179
 20
668.896559
 30
0.0
 10
288.950179
 20
668.896559
 30
0.0
  0
SPLINE
  5
11d
100
AcDbEntity
  8
Calque_1
 62
1
100
AcDbSpline
 70
8
 71
3
 72
8
 73
4
 74
0
 40
0
 40
0
 40
0
 40
0
 40
1
 40
1
 40
1
 40
1
 10
288.950179
 20
660.134885
 30
0.0
 10
288.950179
 20
630.569415
 30
0.0
 10
288.950179
 20
630.569415
 30
0.0
 10
288.950179
 20
630.569415
 30
0.0
  0
SPLINE
  5
11e
100
AcDbEntity
  8
Calque_1
 62
1
100
AcDbSpline
 70
8
 71
3
 72
8
 73
4
 74
0
 40
0
 40
0
 40
0
 40
0
 40
1
 40
1
 40
1
 40
1
 10
254.484153
 20
798.663840
 30
0.0
 10
254.484153
 20
768.405436
 30
0.0
 10
254.484153
 20
768.405436
 30
0.0
 10
254.484153
 20
768.405436
 30
0.0
  0
SPLINE
  5
11f
100
AcDbEntity
  8
Calque_1
 62
1
100
AcDbSpline
 70
8
 71
3
 72
8
 73
4
 74
0
 40
0
 40
0
 40
0
 40
0
 40
1
 40
1
 40
1
 40
1
 10
254.484153
 20
759.438432
 30
0.0
 10
254.484153
 20
729.180027
 30
0.0
 10
254.484153
 20
729.180027
 30
0.0
 10
254.484153
 20
729.180027
 30
0.0
  0
SPLINE
  5
120
100
AcDbEntity
  8
Calque_1
 62
1
100
AcDbSpline
 70
8
 71
3
 72
8
 73
4
 74
0
 40
0
 40
0
 40
0
 40
0
 40
1
 40
1
 40
1
 40
1
 10
254.484153
 20
720.213044
 30
0.0
 10
254.484153
 20
689.954640
 30
0.0
 10
254.484153
 20
689.954640
 30
0.0
 10
254.484153
 20
689.954640
 30
0.0
  0
SPLINE
  5
121
100
AcDbEntity
  8
Calque_1
 62
1
100
AcDbSpline
 70
8
 71
3
 72
8
 73
4
 74
0
 40
0
 40
0
 40
0
 40
0
 40
1
 40
1
 40
1
 40
1
 10
254.484153
 20
680.987647
 30
0.0
 10
254.484153
 20
650.729246
 30
0.0
 10
254.484153
 20
650.729246
 30
0.0
 10
254.484153
 20
650.729246
 30
0.0
  0
SPLINE
  5
122
100
AcDbEntity
  8
Calque_1
 62
1
100
AcDbSpline
 70
8
 71
3
 72
8
 73
4
 74
0
 40
0
 40
0
 40
0
 40
0
 40
1
 40
1
 40
1
 40
1
 10
254.484153
 20
641.762239
 30
0.0
 10
254.484153
 20
611.503893
 30
0.0
 10
254.484153
 20
611.503893
 30
0.0
 10
254.484153
 20
611.503893
 30
0.0
  0
SPLINE
  5
123
100
AcDbEntity
  8
Calque_1
 62
1
100
AcDbSpline
 70
8
 71
3
 72
8
 73
4
 74
0
 40
0
 40
0
 40
0
 40
0
 40
1
 40
1
 40
1
 40
1
 10
262.133033
 20
798.663840
 30
0.0
 10
262.133033
 20
768.405436
 30
0.0
 10
262.133033
 20
768.405436
 30
0.0
 10
262.133033
 20
768.405436
 30
0.0
  0
SPLINE
  5
124
100
AcDbEntity
  8
Calque_1
 62
1
100
AcDbSpline
 70
8
 71
3
 72
8
 73
4
 74
0
 40
0
 40
0
 40
0
 40
0
 40
1
 40
1
 40
1
 40
1
 10
262.133033
 20
759.438432
 30
0.0
 10
262.133033
 20
729.180027
 30
0.0
 10
262.133033
 20
729.180027
 30
0.0
 10
262.133033
 20
729.180027
 30
0.0
  0
SPLINE
  5
125
100
AcDbEntity
  8
Calque_1
 62
1
100
AcDbSpline
 70
8
 71
3
 72
8
 73
4
 74
0
 40
0
 40
0
 40
0
 40
0
 40
1
 40
1
 40
1
 40
1
 10
262.133033
 20
720.213044
 30
0.0
 10
262.133033
 20
689.954640
 30
0.0
 10
262.133033
 20
689.954640
 30
0.0
 10
262.133033
 20
689.954640
 30
0.0
  0
SPLINE
  5
126
100
AcDbEntity
  8
Calque_1
 62
1
100
AcDbSpline
 70
8
 71
3
 72
8
 73
4
 74
0
 40
0
 40
0
 40
0
 40
0
 40
1
 40
1
 40
1
 40
1
 10
262.133033
 20
680.987647
 30
0.0
 10
262.133033
 20
650.729246
 30
0.0
 10
262.133033
 20
650.729246
 30
0.0
 10
262.133033
 20
650.729246
 30
0.0
  0
SPLINE
  5
127
100
AcDbEntity
  8
Calque_1
 62
1
100
AcDbSpline
 70
8
 71
3
 72
8
 73
4
 74
0
 40
0
 40
0
 40
0
 40
0
 40
1
 40
1
 40
1
 40
1
 10
262.133033
 20
641.762239
 30
0.0
 10
262.133033
 20
611.503893
 30
0.0
 10
262.133033
 20
611.503893
 30
0.0
 10
262.133033
 20
611.503893
 30
0.0
  0
SPLINE
  5
128
100
AcDbEntity
  8
Calque_1
 62
1
100
AcDbSpline
 70
8
 71
3
 72
8
 73
4
 74
0
 40
0
 40
0
 40
0
 40
0
 40
1
 40
1
 40
1
 40
1
 10
269.781938
 20
798.663840
 30
0.0
 10
269.781938
 20
768.405436
 30
0.0
 10
269.781938
 20
768.405436
 30
0.0
 10
269.781938
 20
768.405436
 30
0.0
  0
SPLINE
  5
129
100
AcDbEntity
  8
Calque_1
 62
1
100
AcDbSpline
 70
8
 71
3
 72
8
 73
4
 74
0
 40
0
 40
0
 40
0
 40
0
 40
1
 40
1
 40
1
 40
1
 10
269.781938
 20
759.438432
 30
0.0
 10
269.781938
 20
729.180027
 30
0.0
 10
269.781938
 20
729.180027
 30
0.0
 10
269.781938
 20
729.180027
 30
0.0
  0
SPLINE
  5
12a
100
AcDbEntity
  8
Calque_1
 62
1
100
AcDbSpline
 70
8
 71
3
 72
8
 73
4
 74
0
 40
0
 40
0
 40
0
 40
0
 40
1
 40
1
 40
1
 40
1
 10
269.781938
 20
720.213044
 30
0.0
 10
269.781938
 20
689.954640
 30
0.0
 10
269.781938
 20
689.954640
 30
0.0
 10
269.781938
 20
689.954640
 30
0.0
  0
SPLINE
  5
12b
100
AcDbEntity
  8
Calque_1
 62
1
100
AcDbSpline
 70
8
 71
3
 72
8
 73
4
 74
0
 40
0
 40
0
 40
0
 40
0
 40
1
 40
1
 40
1
 40
1
 10
269.781938
 20
680.987647
 30
0.0
 10
269.781938
 20
650.729246
 30
0.0
 10
269.781938
 20
650.729246
 30
0.0
 10
269.781938
 20
650.729246
 30
0.0
  0
SPLINE
  5
12c
100
AcDbEntity
  8
Calque_1
 62
1
100
AcDbSpline
 70
8
 71
3
 72
8
 73
4
 74
0
 40
0
 40
0
 40
0
 40
0
 40
1
 40
1
 40
1
 40
1
 10
269.781938
 20
641.762239
 30
0.0
 10
269.781938
 20
611.503893
 30
0.0
 10
269.781938
 20
611.503893
 30
0.0
 10
269.781938
 20
611.503893
 30
0.0
  0
SPLINE
  5
12d
100
AcDbEntity
  8
Calque_1
 62
1
100
AcDbSpline
 70
8
 71
3
 72
8
 73
4
 74
0
 40
0
 40
0
 40
0
 40
0
 40
1
 40
1
 40
1
 40
1
 10
277.430817
 20
798.663840
 30
0.0
 10
277.430817
 20
768.405436
 30
0.0
 10
277.430817
 20
768.405436
 30
0.0
 10
277.430817
 20
768.405436
 30
0.0
  0
SPLINE
  5
12e
100
AcDbEntity
  8
Calque_1
 62
1
100
AcDbSpline
 70
8
 71
3
 72
8
 73
4
 74
0
 40
0
 40
0
 40
0
 40
0
 40
1
 40
1
 40
1
 40
1
 10
277.430817
 20
759.438432
 30
0.0
 10
277.430817
 20
729.180027
 30
0.0
 10
277.430817
 20
729.180027
 30
0.0
 10
277.430817
 20
729.180027
 30
0.0
  0
SPLINE
  5
12f
100
AcDbEntity
  8
Calque_1
 62
1
100
AcDbSpline
 70
8
 71
3
 72
8
 73
4
 74
0
 40
0
 40
0
 40
0
 40
0
 40
1
 40
1
 40
1
 40
1
 10
277.430817
 20
720.213044
 30
0.0
 10
277.430817
 20
689.954640
 30
0.0
 10
277.430817
 20
689.954640
 30
0.0
 10
277.430817
 20
689.954640
 30
0.0
  0
SPLINE
  5
130
100
AcDbEntity
  8
Calque_1
 62
1
100
AcDbSpline
 70
8
 71
3
 72
8
 73
4
 74
0
 40
0
 40
0
 40
0
 40
0
 40
1
 40
1
 40
1
 40
1
 10
277.430817
 20
680.987647
 30
0.0
 10
277.430817
 20
650.729246
 30
0.0
 10
277.430817
 20
650.729246
 30
0.0
 10
277.430817
 20
650.729246
 30
0.0
  0
SPLINE
  5
131
100
AcDbEntity
  8
Calque_1
 62
1
100
AcDbSpline
 70
8
 71
3
 72
8
 73
4
 74
0
 40
0
 40
0
 40
0
 40
0
 40
1
 40
1
 40
1
 40
1
 10
277.430817
 20
641.762239
 30
0.0
 10
277.430817
 20
611.503893
 30
0.0
 10
277.430817
 20
611.503893
 30
0.0
 10
277.430817
 20
611.503893
 30
0.0
  0
SPLINE
  5
132
100
AcDbEntity
  8
Calque_1
 62
1
100
AcDbSpline
 70
8
 71
3
 72
8
 73
4
 74
0
 40
0
 40
0
 40
0
 40
0
 40
1
 40
1
 40
1
 40
1
 10
285.079708
 20
798.663840
 30
0.0
 10
285.079708
 20
768.405436
 30
0.0
 10
285.079708
 20
768.405436
 30
0.0
 10
285.079708
 20
768.405436
 30
0.0
  0
SPLINE
  5
133
100
AcDbEntity
  8
Calque_1
 62
1
100
AcDbSpline
 70
8
 71
3
 72
8
 73
4
 74
0
 40
0
 40
0
 40
0
 40
0
 40
1
 40
1
 40
1
 40
1
 10
285.079708
 20
759.438432
 30
0.0
 10
285.079708
 20
729.180027
 30
0.0
 10
285.079708
 20
729.180027
 30
0.0
 10
285.079708
 20
729.180027
 30
0.0
  0
SPLINE
  5
134
100
AcDbEntity
  8
Calque_1
 62
1
100
AcDbSpline
 70
8
 71
3
 72
8
 73
4
 74
0
 40
0
 40
0
 40
0
 40
0
 40
1
 40
1
 40
1
 40
1
 10
285.079708
 20
720.213044
 30
0.0
 10
285.079708
 20
689.954640
 30
0.0
 10
285.079708
 20
689.954640
 30
0.0
 10
285.079708
 20
689.954640
 30
0.0
  0
SPLINE
  5
135
100
AcDbEntity
  8
Calque_1
 62
1
100
AcDbSpline
 70
8
 71
3
 72
8
 73
4
 74
0
 40
0
 40
0
 40
0
 40
0
 40
1
 40
1
 40
1
 40
1
 10
285.079708
 20
680.987647
 30
0.0
 10
285.079708
 20
650.729246
 30
0.0
 10
285.079708
 20
650.729246
 30
0.0
 10
285.079708
 20
650.729246
 30
0.0
  0
SPLINE
  5
136
100
AcDbEntity
  8
Calque_1
 62
1
100
AcDbSpline
 70
8
 71
3
 72
8
 73
4
 74
0
 40
0
 40
0
 40
0
 40
0
 40
1
 40
1
 40
1
 40
1
 10
285.079708
 20
641.762239
 30
0.0
 10
285.079708
 20
611.503893
 30
0.0
 10
285.079708
 20
611.503893
 30
0.0
 10
285.079708
 20
611.503893
 30
0.0
  0
SPLINE
  5
137
100
AcDbEntity
  8
Calque_1
 62
1
100
AcDbSpline
 70
8
 71
3
 72
8
 73
4
 74
0
 40
0
 40
0
 40
0
 40
0
 40
1
 40
1
 40
1
 40
1
 10
292.728589
 20
798.663840
 30
0.0
 10
292.728589
 20
768.405436
 30
0.0
 10
292.728589
 20
768.405436
 30
0.0
 10
292.728589
 20
768.405436
 30
0.0
  0
SPLINE
  5
138
100
AcDbEntity
  8
Calque_1
 62
1
100
AcDbSpline
 70
8
 71
3
 72
8
 73
4
 74
0
 40
0
 40
0
 40
0
 40
0
 40
1
 40
1
 40
1
 40
1
 10
292.728589
 20
759.438432
 30
0.0
 10
292.728589
 20
729.180027
 30
0.0
 10
292.728589
 20
729.180027
 30
0.0
 10
292.728589
 20
729.180027
 30
0.0
  0
SPLINE
  5
139
100
AcDbEntity
  8
Calque_1
 62
1
100
AcDbSpline
 70
8
 71
3
 72
8
 73
4
 74
0
 40
0
 40
0
 40
0
 40
0
 40
1
 40
1
 40
1
 40
1
 10
292.728589
 20
720.213044
 30
0.0
 10
292.728589
 20
689.954640
 30
0.0
 10
292.728589
 20
689.954640
 30
0.0
 10
292.728589
 20
689.954640
 30
0.0
  0
SPLINE
  5
13a
100
AcDbEntity
  8
Calque_1
 62
1
100
AcDbSpline
 70
8
 71
3
 72
8
 73
4
 74
0
 40
0
 40
0
 40
0
 40
0
 40
1
 40
1
 40
1
 40
1
 10
292.728589
 20
680.987647
 30
0.0
 10
292.728589
 20
650.729246
 30
0.0
 10
292.728589
 20
650.729246
 30
0.0
 10
292.728589
 20
650.729246
 30
0.0
  0
SPLINE
  5
13b
100
AcDbEntity
  8
Calque_1
 62
1
100
AcDbSpline
 70
8
 71
3
 72
8
 73
4
 74
0
 40
0
 40
0
 40
0
 40
0
 40
1
 40
1
 40
1
 40
1
 10
292.728589
 20
641.762239
 30
0.0
 10
292.728589
 20
611.503893
 30
0.0
 10
292.728589
 20
611.503893
 30
0.0
 10
292.728589
 20
611.503893
 30
0.0
  0
SPLINE
  5
13c
100
AcDbEntity
  8
Calque_1
 62
1
100
AcDbSpline
 70
8
 71
3
 72
8
 73
4
 74
0
 40
0
 40
0
 40
0
 40
0
 40
1
 40
1
 40
1
 40
1
 10
296.658575
 20
813.443649
 30
0.0
 10
296.658575
 20
783.878122
 30
0.0
 10
296.658575
 20
783.878122
 30
0.0
 10
296.658575
 20
783.878122
 30
0.0
  0
SPLINE
  5
13d
100
AcDbEntity
  8
Calque_1
 62
1
100
AcDbSpline
 70
8
 71
3
 72
8
 73
4
 74
0
 40
0
 40
0
 40
0
 40
0
 40
1
 40
1
 40
1
 40
1
 10
296.658575
 20
775.116450
 30
0.0
 10
296.658575
 20
745.550923
 30
0.0
 10
296.658575
 20
745.550923
 30
0.0
 10
296.658575
 20
745.550923
 30
0.0
  0
SPLINE
  5
13e
100
AcDbEntity
  8
Calque_1
 62
1
100
AcDbSpline
 70
8
 71
3
 72
8
 73
4
 74
0
 40
0
 40
0
 40
0
 40
0
 40
1
 40
1
 40
1
 40
1
 10
296.658575
 20
736.789271
 30
0.0
 10
296.658575
 20
707.223744
 30
0.0
 10
296.658575
 20
707.223744
 30
0.0
 10
296.658575
 20
707.223744
 30
0.0
  0
SPLINE
  5
13f
100
AcDbEntity
  8
Calque_1
 62
1
100
AcDbSpline
 70
8
 71
3
 72
8
 73
4
 74
0
 40
0
 40
0
 40
0
 40
0
 40
1
 40
1
 40
1
 40
1
 10
296.658575
 20
698.462084
 30
0.0
 10
296.658575
 20
668.896559
 30
0.0
 10
296.658575
 20
668.896559
 30
0.0
 10
296.658575
 20
668.896559
 30
0.0
  0
SPLINE
  5
140
100
AcDbEntity
  8
Calque_1
 62
1
100
AcDbSpline
 70
8
 71
3
 72
8
 73
4
 74
0
 40
0
 40
0
 40
0
 40
0
 40
1
 40
1
 40
1
 40
1
 10
296.658575
 20
660.134885
 30
0.0
 10
296.658575
 20
630.569415
 30
0.0
 10
296.658575
 20
630.569415
 30
0.0
 10
296.658575
 20
630.569415
 30
0.0
  0
SPLINE
  5
141
100
AcDbEntity
  8
Calque_1
 62
1
100
AcDbSpline
 70
8
 71
3
 72
8
 73
4
 74
0
 40
0
 40
0
 40
0
 40
0
 40
1
 40
1
 40
1
 40
1
 10
304.307456
 20
813.443649
 30
0.0
 10
304.307456
 20
783.878122
 30
0.0
 10
304.307456
 20
783.878122
 30
0.0
 10
304.307456
 20
783.878122
 30
0.0
  0
SPLINE
  5
142
100
AcDbEntity
  8
Calque_1
 62
1
100
AcDbSpline
 70
8
 71
3
 72
8
 73
4
 74
0
 40
0
 40
0
 40
0
 40
0
 40
1
 40
1
 40
1
 40
1
 10
304.307456
 20
775.116450
 30
0.0
 10
304.307456
 20
745.550923
 30
0.0
 10
304.307456
 20
745.550923
 30
0.0
 10
304.307456
 20
745.550923
 30
0.0
  0
SPLINE
  5
143
100
AcDbEntity
  8
Calque_1
 62
1
100
AcDbSpline
 70
8
 71
3
 72
8
 73
4
 74
0
 40
0
 40
0
 40
0
 40
0
 40
1
 40
1
 40
1
 40
1
 10
304.307456
 20
736.789271
 30
0.0
 10
304.307456
 20
707.223744
 30
0.0
 10
304.307456
 20
707.223744
 30
0.0
 10
304.307456
 20
707.223744
 30
0.0
  0
SPLINE
  5
144
100
AcDbEntity
  8
Calque_1
 62
1
100
AcDbSpline
 70
8
 71
3
 72
8
 73
4
 74
0
 40
0
 40
0
 40
0
 40
0
 40
1
 40
1
 40
1
 40
1
 10
304.307456
 20
698.462084
 30
0.0
 10
304.307456
 20
668.896559
 30
0.0
 10
304.307456
 20
668.896559
 30
0.0
 10
304.307456
 20
668.896559
 30
0.0
  0
SPLINE
  5
145
100
AcDbEntity
  8
Calque_1
 62
1
100
AcDbSpline
 70
8
 71
3
 72
8
 73
4
 74
0
 40
0
 40
0
 40
0
 40
0
 40
1
 40
1
 40
1
 40
1
 10
304.307456
 20
660.134885
 30
0.0
 10
304.307456
 20
630.569415
 30
0.0
 10
304.307456
 20
630.569415
 30
0.0
 10
304.307456
 20
630.569415
 30
0.0
  0
SPLINE
  5
146
100
AcDbEntity
  8
Calque_1
 62
1
100
AcDbSpline
 70
8
 71
3
 72
8
 73
4
 74
0
 40
0
 40
0
 40
0
 40
0
 40
1
 40
1
 40
1
 40
1
 10
311.956360
 20
813.443649
 30
0.0
 10
311.956360
 20
783.878122
 30
0.0
 10
311.956360
 20
783.878122
 30
0.0
 10
311.956360
 20
783.878122
 30
0.0
  0
SPLINE
  5
147
100
AcDbEntity
  8
Calque_1
 62
1
100
AcDbSpline
 70
8
 71
3
 72
8
 73
4
 74
0
 40
0
 40
0
 40
0
 40
0
 40
1
 40
1
 40
1
 40
1
 10
311.956360
 20
775.116450
 30
0.0
 10
311.956360
 20
745.550923
 30
0.0
 10
311.956360
 20
745.550923
 30
0.0
 10
311.956360
 20
745.550923
 30
0.0
  0
SPLINE
  5
148
100
AcDbEntity
  8
Calque_1
 62
1
100
AcDbSpline
 70
8
 71
3
 72
8
 73
4
 74
0
 40
0
 40
0
 40
0
 40
0
 40
1
 40
1
 40
1
 40
1
 10
311.956360
 20
736.789271
 30
0.0
 10
311.956360
 20
707.223744
 30
0.0
 10
311.956360
 20
707.223744
 30
0.0
 10
311.956360
 20
707.223744
 30
0.0
  0
SPLINE
  5
149
100
AcDbEntity
  8
Calque_1
 62
1
100
AcDbSpline
 70
8
 71
3
 72
8
 73
4
 74
0
 40
0
 40
0
 40
0
 40
0
 40
1
 40
1
 40
1
 40
1
 10
311.956360
 20
698.462084
 30
0.0
 10
311.956360
 20
668.896559
 30
0.0
 10
311.956360
 20
668.896559
 30
0.0
 10
311.956360
 20
668.896559
 30
0.0
  0
SPLINE
  5
14a
100
AcDbEntity
  8
Calque_1
 62
1
100
AcDbSpline
 70
8
 71
3
 72
8
 73
4
 74
0
 40
0
 40
0
 40
0
 40
0
 40
1
 40
1
 40
1
 40
1
 10
311.956360
 20
660.134885
 30
0.0
 10
311.956360
 20
630.569415
 30
0.0
 10
311.956360
 20
630.569415
 30
0.0
 10
311.956360
 20
630.569415
 30
0.0
  0
SPLINE
  5
14b
100
AcDbEntity
  8
Calque_1
 62
1
100
AcDbSpline
 70
8
 71
3
 72
8
 73
4
 74
0
 40
0
 40
0
 40
0
 40
0
 40
1
 40
1
 40
1
 40
1
 10
319.605240
 20
813.443649
 30
0.0
 10
319.605240
 20
783.878122
 30
0.0
 10
319.605240
 20
783.878122
 30
0.0
 10
319.605240
 20
783.878122
 30
0.0
  0
SPLINE
  5
14c
100
AcDbEntity
  8
Calque_1
 62
1
100
AcDbSpline
 70
8
 71
3
 72
8
 73
4
 74
0
 40
0
 40
0
 40
0
 40
0
 40
1
 40
1
 40
1
 40
1
 10
319.605240
 20
775.116450
 30
0.0
 10
319.605240
 20
745.550923
 30
0.0
 10
319.605240
 20
745.550923
 30
0.0
 10
319.605240
 20
745.550923
 30
0.0
  0
SPLINE
  5
14d
100
AcDbEntity
  8
Calque_1
 62
1
100
AcDbSpline
 70
8
 71
3
 72
8
 73
4
 74
0
 40
0
 40
0
 40
0
 40
0
 40
1
 40
1
 40
1
 40
1
 10
319.605240
 20
736.789271
 30
0.0
 10
319.605240
 20
707.223744
 30
0.0
 10
319.605240
 20
707.223744
 30
0.0
 10
319.605240
 20
707.223744
 30
0.0
  0
SPLINE
  5
14e
100
AcDbEntity
  8
Calque_1
 62
1
100
AcDbSpline
 70
8
 71
3
 72
8
 73
4
 74
0
 40
0
 40
0
 40
0
 40
0
 40
1
 40
1
 40
1
 40
1
 10
319.605240
 20
698.462084
 30
0.0
 10
319.605240
 20
668.896559
 30
0.0
 10
319.605240
 20
668.896559
 30
0.0
 10
319.605240
 20
668.896559
 30
0.0
  0
SPLINE
  5
14f
100
AcDbEntity
  8
Calque_1
 62
1
100
AcDbSpline
 70
8
 71
3
 72
8
 73
4
 74
0
 40
0
 40
0
 40
0
 40
0
 40
1
 40
1
 40
1
 40
1
 10
319.605240
 20
660.134885
 30
0.0
 10
319.605240
 20
630.569415
 30
0.0
 10
319.605240
 20
630.569415
 30
0.0
 10
319.605240
 20
630.569415
 30
0.0
  0
SPLINE
  5
150
100
AcDbEntity
  8
Calque_1
 62
1
100
AcDbSpline
 70
8
 71
3
 72
8
 73
4
 74
0
 40
0
 40
0
 40
0
 40
0
 40
1
 40
1
 40
1
 40
1
 10
327.254131
 20
813.443649
 30
0.0
 10
327.254131
 20
783.878122
 30
0.0
 10
327.254131
 20
783.878122
 30
0.0
 10
327.254131
 20
783.878122
 30
0.0
  0
SPLINE
  5
151
100
AcDbEntity
  8
Calque_1
 62
1
100
AcDbSpline
 70
8
 71
3
 72
8
 73
4
 74
0
 40
0
 40
0
 40
0
 40
0
 40
1
 40
1
 40
1
 40
1
 10
327.254131
 20
775.116450
 30
0.0
 10
327.254131
 20
745.550923
 30
0.0
 10
327.254131
 20
745.550923
 30
0.0
 10
327.254131
 20
745.550923
 30
0.0
  0
SPLINE
  5
152
100
AcDbEntity
  8
Calque_1
 62
1
100
AcDbSpline
 70
8
 71
3
 72
8
 73
4
 74
0
 40
0
 40
0
 40
0
 40
0
 40
1
 40
1
 40
1
 40
1
 10
327.254131
 20
736.789271
 30
0.0
 10
327.254131
 20
707.223744
 30
0.0
 10
327.254131
 20
707.223744
 30
0.0
 10
327.254131
 20
707.223744
 30
0.0
  0
SPLINE
  5
153
100
AcDbEntity
  8
Calque_1
 62
1
100
AcDbSpline
 70
8
 71
3
 72
8
 73
4
 74
0
 40
0
 40
0
 40
0
 40
0
 40
1
 40
1
 40
1
 40
1
 10
327.254131
 20
698.462084
 30
0.0
 10
327.254131
 20
668.896559
 30
0.0
 10
327.254131
 20
668.896559
 30
0.0
 10
327.254131
 20
668.896559
 30
0.0
  0
SPLINE
  5
154
100
AcDbEntity
  8
Calque_1
 62
1
100
AcDbSpline
 70
8
 71
3
 72
8
 73
4
 74
0
 40
0
 40
0
 40
0
 40
0
 40
1
 40
1
 40
1
 40
1
 10
327.254131
 20
660.134885
 30
0.0
 10
327.254131
 20
630.569415
 30
0.0
 10
327.254131
 20
630.569415
 30
0.0
 10
327.254131
 20
630.569415
 30
0.0
  0
SPLINE
  5
155
100
AcDbEntity
  8
Calque_1
 62
1
100
AcDbSpline
 70
8
 71
3
 72
8
 73
4
 74
0
 40
0
 40
0
 40
0
 40
0
 40
1
 40
1
 40
1
 40
1
 10
334.903011
 20
813.443649
 30
0.0
 10
334.903011
 20
783.878122
 30
0.0
 10
334.903011
 20
783.878122
 30
0.0
 10
334.903011
 20
783.878122
 30
0.0
  0
SPLINE
  5
156
100
AcDbEntity
  8
Calque_1
 62
1
100
AcDbSpline
 70
8
 71
3
 72
8
 73
4
 74
0
 40
0
 40
0
 40
0
 40
0
 40
1
 40
1
 40
1
 40
1
 10
334.903011
 20
775.116450
 30
0.0
 10
334.903011
 20
745.550923
 30
0.0
 10
334.903011
 20
745.550923
 30
0.0
 10
334.903011
 20
745.550923
 30
0.0
  0
SPLINE
  5
157
100
AcDbEntity
  8
Calque_1
 62
1
100
AcDbSpline
 70
8
 71
3
 72
8
 73
4
 74
0
 40
0
 40
0
 40
0
 40
0
 40
1
 40
1
 40
1
 40
1
 10
334.903011
 20
736.789271
 30
0.0
 10
334.903011
 20
707.223744
 30
0.0
 10
334.903011
 20
707.223744
 30
0.0
 10
334.903011
 20
707.223744
 30
0.0
  0
SPLINE
  5
158
100
AcDbEntity
  8
Calque_1
 62
1
100
AcDbSpline
 70
8
 71
3
 72
8
 73
4
 74
0
 40
0
 40
0
 40
0
 40
0
 40
1
 40
1
 40
1
 40
1
 10
334.903011
 20
698.462084
 30
0.0
 10
334.903011
 20
668.896559
 30
0.0
 10
334.903011
 20
668.896559
 30
0.0
 10
334.903011
 20
668.896559
 30
0.0
  0
SPLINE
  5
159
100
AcDbEntity
  8
Calque_1
 62
1
100
AcDbSpline
 70
8
 71
3
 72
8
 73
4
 74
0
 40
0
 40
0
 40
0
 40
0
 40
1
 40
1
 40
1
 40
1
 10
334.903011
 20
660.134885
 30
0.0
 10
334.903011
 20
630.569415
 30
0.0
 10
334.903011
 20
630.569415
 30
0.0
 10
334.903011
 20
630.569415
 30
0.0
  0
SPLINE
  5
15a
100
AcDbEntity
  8
Calque_1
 62
1
100
AcDbSpline
 70
8
 71
3
 72
8
 73
4
 74
0
 40
0
 40
0
 40
0
 40
0
 40
1
 40
1
 40
1
 40
1
 10
300.436985
 20
798.663840
 30
0.0
 10
300.436985
 20
768.405436
 30
0.0
 10
300.436985
 20
768.405436
 30
0.0
 10
300.436985
 20
768.405436
 30
0.0
  0
SPLINE
  5
15b
100
AcDbEntity
  8
Calque_1
 62
1
100
AcDbSpline
 70
8
 71
3
 72
8
 73
4
 74
0
 40
0
 40
0
 40
0
 40
0
 40
1
 40
1
 40
1
 40
1
 10
300.436985
 20
759.438432
 30
0.0
 10
300.436985
 20
729.180027
 30
0.0
 10
300.436985
 20
729.180027
 30
0.0
 10
300.436985
 20
729.180027
 30
0.0
  0
SPLINE
  5
15c
100
AcDbEntity
  8
Calque_1
 62
1
100
AcDbSpline
 70
8
 71
3
 72
8
 73
4
 74
0
 40
0
 40
0
 40
0
 40
0
 40
1
 40
1
 40
1
 40
1
 10
300.436985
 20
720.213044
 30
0.0
 10
300.436985
 20
689.954640
 30
0.0
 10
300.436985
 20
689.954640
 30
0.0
 10
300.436985
 20
689.954640
 30
0.0
  0
SPLINE
  5
15d
100
AcDbEntity
  8
Calque_1
 62
1
100
AcDbSpline
 70
8
 71
3
 72
8
 73
4
 74
0
 40
0
 40
0
 40
0
 40
0
 40
1
 40
1
 40
1
 40
1
 10
300.436985
 20
680.987647
 30
0.0
 10
300.436985
 20
650.729246
 30
0.0
 10
300.436985
 20
650.729246
 30
0.0
 10
300.436985
 20
650.729246
 30
0.0
  0
SPLINE
  5
15e
100
AcDbEntity
  8
Calque_1
 62
1
100
AcDbSpline
 70
8
 71
3
 72
8
 73
4
 74
0
 40
0
 40
0
 40
0
 40
0
 40
1
 40
1
 40
1
 40
1
 10
300.436985
 20
641.762239
 30
0.0
 10
300.436985
 20
611.503893
 30
0.0
 10
300.436985
 20
611.503893
 30
0.0
 10
300.436985
 20
611.503893
 30
0.0
  0
SPLINE
  5
15f
100
AcDbEntity
  8
Calque_1
 62
1
100
AcDbSpline
 70
8
 71
3
 72
8
 73
4
 74
0
 40
0
 40
0
 40
0
 40
0
 40
1
 40
1
 40
1
 40
1
 10
308.085866
 20
798.663840
 30
0.0
 10
308.085866
 20
768.405436
 30
0.0
 10
308.085866
 20
768.405436
 30
0.0
 10
308.085866
 20
768.405436
 30
0.0
  0
SPLINE
  5
160
100
AcDbEntity
  8
Calque_1
 62
1
100
AcDbSpline
 70
8
 71
3
 72
8
 73
4
 74
0
 40
0
 40
0
 40
0
 40
0
 40
1
 40
1
 40
1
 40
1
 10
308.085866
 20
759.438432
 30
0.0
 10
308.085866
 20
729.180027
 30
0.0
 10
308.085866
 20
729.180027
 30
0.0
 10
308.085866
 20
729.180027
 30
0.0
  0
SPLINE
  5
161
100
AcDbEntity
  8
Calque_1
 62
1
100
AcDbSpline
 70
8
 71
3
 72
8
 73
4
 74
0
 40
0
 40
0
 40
0
 40
0
 40
1
 40
1
 40
1
 40
1
 10
308.085866
 20
720.213044
 30
0.0
 10
308.085866
 20
689.954640
 30
0.0
 10
308.085866
 20
689.954640
 30
0.0
 10
308.085866
 20
689.954640
 30
0.0
  0
SPLINE
  5
162
100
AcDbEntity
  8
Calque_1
 62
1
100
AcDbSpline
 70
8
 71
3
 72
8
 73
4
 74
0
 40
0
 40
0
 40
0
 40
0
 40
1
 40
1
 40
1
 40
1
 10
308.085866
 20
680.987647
 30
0.0
 10
308.085866
 20
650.729246
 30
0.0
 10
308.085866
 20
650.729246
 30
0.0
 10
308.085866
 20
650.729246
 30
0.0
  0
SPLINE
  5
163
100
AcDbEntity
  8
Calque_1
 62
1
100
AcDbSpline
 70
8
 71
3
 72
8
 73
4
 74
0
 40
0
 40
0
 40
0
 40
0
 40
1
 40
1
 40
1
 40
1
 10
308.085866
 20
641.762239
 30
0.0
 10
308.085866
 20
611.503893
 30
0.0
 10
308.085866
 20
611.503893
 30
0.0
 10
308.085866
 20
611.503893
 30
0.0
  0
SPLINE
  5
164
100
AcDbEntity
  8
Calque_1
 62
1
100
AcDbSpline
 70
8
 71
3
 72
8
 73
4
 74
0
 40
0
 40
0
 40
0
 40
0
 40
1
 40
1
 40
1
 40
1
 10
315.734770
 20
798.663840
 30
0.0
 10
315.734770
 20
768.405436
 30
0.0
 10
315.734770
 20
768.405436
 30
0.0
 10
315.734770
 20
768.405436
 30
0.0
  0
SPLINE
  5
165
100
AcDbEntity
  8
Calque_1
 62
1
100
AcDbSpline
 70
8
 71
3
 72
8
 73
4
 74
0
 40
0
 40
0
 40
0
 40
0
 40
1
 40
1
 40
1
 40
1
 10
315.734770
 20
759.438432
 30
0.0
 10
315.734770
 20
729.180027
 30
0.0
 10
315.734770
 20
729.180027
 30
0.0
 10
315.734770
 20
729.180027
 30
0.0
  0
SPLINE
  5
166
100
AcDbEntity
  8
Calque_1
 62
1
100
AcDbSpline
 70
8
 71
3
 72
8
 73
4
 74
0
 40
0
 40
0
 40
0
 40
0
 40
1
 40
1
 40
1
 40
1
 10
315.734770
 20
720.213044
 30
0.0
 10
315.734770
 20
689.954640
 30
0.0
 10
315.734770
 20
689.954640
 30
0.0
 10
315.734770
 20
689.954640
 30
0.0
  0
SPLINE
  5
167
100
AcDbEntity
  8
Calque_1
 62
1
100
AcDbSpline
 70
8
 71
3
 72
8
 73
4
 74
0
 40
0
 40
0
 40
0
 40
0
 40
1
 40
1
 40
1
 40
1
 10
315.734770
 20
680.987647
 30
0.0
 10
315.734770
 20
650.729246
 30
0.0
 10
315.734770
 20
650.729246
 30
0.0
 10
315.734770
 20
650.729246
 30
0.0
  0
SPLINE
  5
168
100
AcDbEntity
  8
Calque_1
 62
1
100
AcDbSpline
 70
8
 71
3
 72
8
 73
4
 74
0
 40
0
 40
0
 40
0
 40
0
 40
1
 40
1
 40
1
 40
1
 10
315.734770
 20
641.762239
 30
0.0
 10
315.734770
 20
611.503893
 30
0.0
 10
315.734770
 20
611.503893
 30
0.0
 10
315.734770
 20
611.503893
 30
0.0
  0
SPLINE
  5
169
100
AcDbEntity
  8
Calque_1
 62
1
100
AcDbSpline
 70
8
 71
3
 72
8
 73
4
 74
0
 40
0
 40
0
 40
0
 40
0
 40
1
 40
1
 40
1
 40
1
 10
323.383649
 20
798.663840
 30
0.0
 10
323.383649
 20
768.405436
 30
0.0
 10
323.383649
 20
768.405436
 30
0.0
 10
323.383649
 20
768.405436
 30
0.0
  0
SPLINE
  5
16a
100
AcDbEntity
  8
Calque_1
 62
1
100
AcDbSpline
 70
8
 71
3
 72
8
 73
4
 74
0
 40
0
 40
0
 40
0
 40
0
 40
1
 40
1
 40
1
 40
1
 10
323.383649
 20
759.438432
 30
0.0
 10
323.383649
 20
729.180027
 30
0.0
 10
323.383649
 20
729.180027
 30
0.0
 10
323.383649
 20
729.180027
 30
0.0
  0
SPLINE
  5
16b
100
AcDbEntity
  8
Calque_1
 62
1
100
AcDbSpline
 70
8
 71
3
 72
8
 73
4
 74
0
 40
0
 40
0
 40
0
 40
0
 40
1
 40
1
 40
1
 40
1
 10
323.383649
 20
720.213044
 30
0.0
 10
323.383649
 20
689.954640
 30
0.0
 10
323.383649
 20
689.954640
 30
0.0
 10
323.383649
 20
689.954640
 30
0.0
  0
SPLINE
  5
16c
100
AcDbEntity
  8
Calque_1
 62
1
100
AcDbSpline
 70
8
 71
3
 72
8
 73
4
 74
0
 40
0
 40
0
 40
0
 40
0
 40
1
 40
1
 40
1
 40
1
 10
323.383649
 20
680.987647
 30
0.0
 10
323.383649
 20
650.729246
 30
0.0
 10
323.383649
 20
650.729246
 30
0.0
 10
323.383649
 20
650.729246
 30
0.0
  0
SPLINE
  5
16d
100
AcDbEntity
  8
Calque_1
 62
1
100
AcDbSpline
 70
8
 71
3
 72
8
 73
4
 74
0
 40
0
 40
0
 40
0
 40
0
 40
1
 40
1
 40
1
 40
1
 10
323.383649
 20
641.762239
 30
0.0
 10
323.383649
 20
611.503893
 30
0.0
 10
323.383649
 20
611.503893
 30
0.0
 10
323.383649
 20
611.503893
 30
0.0
  0
SPLINE
  5
16e
100
AcDbEntity
  8
Calque_1
 62
1
100
AcDbSpline
 70
8
 71
3
 72
8
 73
4
 74
0
 40
0
 40
0
 40
0
 40
0
 40
1
 40
1
 40
1
 40
1
 10
331.032540
 20
798.663840
 30
0.0
 10
331.032540
 20
768.405436
 30
0.0
 10
331.032540
 20
768.405436
 30
0.0
 10
331.032540
 20
768.405436
 30
0.0
  0
SPLINE
  5
16f
100
AcDbEntity
  8
Calque_1
 62
1
100
AcDbSpline
 70
8
 71
3
 72
8
 73
4
 74
0
 40
0
 40
0
 40
0
 40
0
 40
1
 40
1
 40
1
 40
1
 10
331.032540
 20
759.438432
 30
0.0
 10
331.032540
 20
729.180027
 30
0.0
 10
331.032540
 20
729.180027
 30
0.0
 10
331.032540
 20
729.180027
 30
0.0
  0
SPLINE
  5
170
100
AcDbEntity
  8
Calque_1
 62
1
100
AcDbSpline
 70
8
 71
3
 72
8
 73
4
 74
0
 40
0
 40
0
 40
0
 40
0
 40
1
 40
1
 40
1
 40
1
 10
331.032540
 20
720.213044
 30
0.0
 10
331.032540
 20
689.954640
 30
0.0
 10
331.032540
 20
689.954640
 30
0.0
 10
331.032540
 20
689.954640
 30
0.0
  0
SPLINE
  5
171
100
AcDbEntity
  8
Calque_1
 62
1
100
AcDbSpline
 70
8
 71
3
 72
8
 73
4
 74
0
 40
0
 40
0
 40
0
 40
0
 40
1
 40
1
 40
1
 40
1
 10
331.032540
 20
680.987647
 30
0.0
 10
331.032540
 20
650.729246
 30
0.0
 10
331.032540
 20
650.729246
 30
0.0
 10
331.032540
 20
650.729246
 30
0.0
  0
SPLINE
  5
172
100
AcDbEntity
  8
Calque_1
 62
1
100
AcDbSpline
 70
8
 71
3
 72
8
 73
4
 74
0
 40
0
 40
0
 40
0
 40
0
 40
1
 40
1
 40
1
 40
1
 10
331.032540
 20
641.762239
 30
0.0
 10
331.032540
 20
611.503893
 30
0.0
 10
331.032540
 20
611.503893
 30
0.0
 10
331.032540
 20
611.503893
 30
0.0
  0
SPLINE
  5
173
100
AcDbEntity
  8
Calque_1
 62
1
100
AcDbSpline
 70
8
 71
3
 72
8
 73
4
 74
0
 40
0
 40
0
 40
0
 40
0
 40
1
 40
1
 40
1
 40
1
 10
338.681421
 20
798.663840
 30
0.0
 10
338.681421
 20
768.405436
 30
0.0
 10
338.681421
 20
768.405436
 30
0.0
 10
338.681421
 20
768.405436
 30
0.0
  0
SPLINE
  5
174
100
AcDbEntity
  8
Calque_1
 62
1
100
AcDbSpline
 70
8
 71
3
 72
8
 73
4
 74
0
 40
0
 40
0
 40
0
 40
0
 40
1
 40
1
 40
1
 40
1
 10
338.681421
 20
759.438432
 30
0.0
 10
338.681421
 20
729.180027
 30
0.0
 10
338.681421
 20
729.180027
 30
0.0
 10
338.681421
 20
729.180027
 30
0.0
  0
SPLINE
  5
175
100
AcDbEntity
  8
Calque_1
 62
1
100
AcDbSpline
 70
8
 71
3
 72
8
 73
4
 74
0
 40
0
 40
0
 40
0
 40
0
 40
1
 40
1
 40
1
 40
1
 10
338.681421
 20
720.213044
 30
0.0
 10
338.681421
 20
689.954640
 30
0.0
 10
338.681421
 20
689.954640
 30
0.0
 10
338.681421
 20
689.954640
 30
0.0
  0
SPLINE
  5
176
100
AcDbEntity
  8
Calque_1
 62
1
100
AcDbSpline
 70
8
 71
3
 72
8
 73
4
 74
0
 40
0
 40
0
 40
0
 40
0
 40
1
 40
1
 40
1
 40
1
 10
338.681421
 20
680.987647
 30
0.0
 10
338.681421
 20
650.729246
 30
0.0
 10
338.681421
 20
650.729246
 30
0.0
 10
338.681421
 20
650.729246
 30
0.0
  0
SPLINE
  5
177
100
AcDbEntity
  8
Calque_1
 62
1
100
AcDbSpline
 70
8
 71
3
 72
8
 73
4
 74
0
 40
0
 40
0
 40
0
 40
0
 40
1
 40
1
 40
1
 40
1
 10
338.681421
 20
641.762239
 30
0.0
 10
338.681421
 20
611.503893
 30
0.0
 10
338.681421
 20
611.503893
 30
0.0
 10
338.681421
 20
611.503893
 30
0.0
  0
LWPOLYLINE
  5
178
100
AcDbEntity
  8
Calque_1
 62
1
100
AcDbPolyline
 90
4
 70
1
 10
68.540669
 20
804.714769
 30
0.0
 10
520.846512
 20
804.714769
 30
0.0
 10
520.846512
 20
630.204191
 30
0.0
 10
68.540669
 20
630.204191
 30
0.0
  0
ENDSEC
  0
SECTION
  2
OBJECTS
  0
DICTIONARY
  5
C
330
0
100
AcDbDictionary
  3
ACAD_GROUP
350
D
  3
ACAD_MLINESTYLE
350
17
  0
DICTIONARY
  5
D
330
C
100
AcDbDictionary
  0
DICTIONARY
  5
1A
330
C
100
AcDbDictionary
  0
DICTIONARY
  5
17
330
C
100
AcDbDictionary
  3
STANDARD
350
18
  0
DICTIONARY
  5
19
330
C
100
AcDbDictionary
  0
ENDSEC
  0
EOF
